<?xml version="1.0" encoding="UTF-8" standalone="no"?>
<!-- Created with Inkscape (http://www.inkscape.org/) -->

<svg
   width="35.179501mm"
   height="39.346321mm"
   viewBox="0 0 35.179501 39.346321"
   version="1.1"
   id="svg170200"
   inkscape:export-filename="/home/niall/Documents/Ponder/logo/pot.png"
   inkscape:export-xdpi="300"
   inkscape:export-ydpi="300"
   inkscape:version="1.1.1 (3bf5ae0d25, 2021-09-20, custom)"
   sodipodi:docname="pot.svg"
   xmlns:inkscape="http://www.inkscape.org/namespaces/inkscape"
   xmlns:sodipodi="http://sodipodi.sourceforge.net/DTD/sodipodi-0.dtd"
   xmlns:xlink="http://www.w3.org/1999/xlink"
   xmlns="http://www.w3.org/2000/svg"
   xmlns:svg="http://www.w3.org/2000/svg">
  <sodipodi:namedview
     id="namedview170202"
     pagecolor="#ffffff"
     bordercolor="#111111"
     borderopacity="1"
     inkscape:pageshadow="0"
     inkscape:pageopacity="0"
     inkscape:pagecheckerboard="1"
     inkscape:document-units="mm"
     showgrid="false"
     inkscape:zoom="6.1433221"
     inkscape:cx="83.26114"
     inkscape:cy="39.717924"
     inkscape:window-width="1900"
     inkscape:window-height="986"
     inkscape:window-x="10"
     inkscape:window-y="47"
     inkscape:window-maximized="1"
     inkscape:current-layer="layer1" />
  <defs
     id="defs170197">
    <linearGradient
       x1="0"
       y1="0"
       x2="1"
       y2="0"
       gradientUnits="userSpaceOnUse"
       gradientTransform="matrix(0,-17389,-17389,0,25000,28944.4)"
       spreadMethod="pad"
       id="linearGradient213689"
       inkscape:swatch="gradient">
      <stop
         style="stop-opacity:1;stop-color:#ffeb00"
         offset="0"
         id="stop213677" />
      <stop
         style="stop-opacity:1;stop-color:#fc0019"
         offset="0.21564"
         id="stop213679" />
      <stop
         style="stop-opacity:1;stop-color:#01ff4f"
         offset="0.400474"
         id="stop213681" />
      <stop
         style="stop-opacity:1;stop-color:#b128f3"
         offset="0.609005"
         id="stop213683" />
      <stop
         style="stop-opacity:1;stop-color:#5600cc"
         offset="0.822275"
         id="stop213685" />
      <stop
         style="stop-opacity:1;stop-color:#00edf5"
         offset="1"
         id="stop213687" />
    </linearGradient>
    <linearGradient
       inkscape:collect="always"
       id="linearGradient222229">
      <stop
         style="stop-color:#394be4;stop-opacity:1;"
         offset="0"
         id="stop222225" />
      <stop
         style="stop-color:#394be4;stop-opacity:0;"
         offset="1"
         id="stop222227" />
    </linearGradient>
    <clipPath
       clipPathUnits="userSpaceOnUse"
       id="clipPath245718">
      <path
         d="m 26138.1,18290.9 c -905.7,149.9 -1903.7,393.8 -2449.3,-245.8 -1000.8,-1173.2 26,-4949.2 2619.1,-4949.1 552.2,0 13.8,5164.5 -169.8,5194.9 z"
         id="path245716" />
    </clipPath>
    <linearGradient
       x1="0"
       y1="0"
       x2="1"
       y2="0"
       gradientUnits="userSpaceOnUse"
       gradientTransform="matrix(0,-17389,-17389,0,25000,28944.4)"
       spreadMethod="pad"
       id="linearGradient230315"
       inkscape:swatch="gradient">
      <stop
         style="stop-opacity:1;stop-color:#ffeb00"
         offset="0"
         id="stop230303" />
      <stop
         style="stop-opacity:1;stop-color:#fc0019"
         offset="0.21564"
         id="stop230305" />
      <stop
         style="stop-opacity:1;stop-color:#01ff4f"
         offset="0.60900497"
         id="stop230307" />
      <stop
         style="stop-opacity:1;stop-color:#b128f3"
         offset="0.609005"
         id="stop230309" />
      <stop
         style="stop-opacity:1;stop-color:#5600cc"
         offset="0.822275"
         id="stop230311" />
      <stop
         style="stop-opacity:1;stop-color:#00edf5"
         offset="1"
         id="stop230313" />
    </linearGradient>
    <clipPath
       clipPathUnits="userSpaceOnUse"
       id="clipPath245734">
      <path
         d="m 24503.2,24722.8 c -683.8,-108.5 -1150.2,-750.8 -1041.7,-1434.7 769.7,482.3 1595.2,613.2 2476.4,393 -108.5,683.8 -750.9,1150.2 -1434.7,1041.7 z"
         id="path245732" />
    </clipPath>
    <linearGradient
       x1="0"
       y1="0"
       x2="1"
       y2="0"
       gradientUnits="userSpaceOnUse"
       gradientTransform="matrix(0,-17389,-17389,0,25000,28944.4)"
       spreadMethod="pad"
       id="linearGradient228753"
       inkscape:swatch="gradient">
      <stop
         style="stop-opacity:1;stop-color:#ffeb00"
         offset="0"
         id="stop228741" />
      <stop
         style="stop-opacity:1;stop-color:#fc0019"
         offset="0.21564"
         id="stop228743" />
      <stop
         style="stop-opacity:1;stop-color:#01ff4f"
         offset="0.400474"
         id="stop228745" />
      <stop
         style="stop-opacity:1;stop-color:#b128f3"
         offset="0.40047401"
         id="stop228747" />
      <stop
         style="stop-opacity:1;stop-color:#5600cc"
         offset="0.86870247"
         id="stop228749" />
      <stop
         style="stop-opacity:1;stop-color:#00edf5"
         offset="1"
         id="stop228751" />
    </linearGradient>
    <clipPath
       clipPathUnits="userSpaceOnUse"
       id="clipPath245750">
      <path
         d="m 26452.1,18371.3 h -762.7 v -5751.7 c -3763,384.4 -6665.7,3569.7 -6665.7,7389.9 0,3421 2324.5,6328.2 5512.2,7175.9 1317,350.3 2795.1,364.5 4021.9,-283.3 1437,-758.8 2418.5,-2268.7 2418.5,-4003.6 0,-2496.3 -2029.5,-4527.2 -4524.2,-4527.2 z m 2420.2,10068.3 c -510.6,225.3 -1076.7,370.9 -1659.5,445.3 -737,94.1 -1500.7,74.3 -2212.8,-42.3 -4249.1,-695.6 -7501.6,-4391.8 -7501.6,-8833.1 0,-4937.1 4016.5,-8953.9 8953.7,-8953.9 h 762.6 v 5838.3 c 2986.7,379.2 5286.9,2963.7 5286.9,6004.6 0,2446.6 -1490.3,4597.4 -3629.3,5541.1 z"
         id="path245748" />
    </clipPath>
    <linearGradient
       x1="0"
       y1="0"
       x2="1"
       y2="0"
       gradientUnits="userSpaceOnUse"
       gradientTransform="matrix(0,-17389,-17389,0,25000,28944.4)"
       spreadMethod="pad"
       id="linearGradient45467">
      <stop
         style="stop-opacity:1;stop-color:#f28b0c"
         offset="0"
         id="stop45455" />
      <stop
         style="stop-opacity:1;stop-color:#bf0b3b"
         offset="0.21564"
         id="stop45457" />
      <stop
         style="stop-opacity:1;stop-color:#bf0b3b"
         offset="0.39999998"
         id="stop45459" />
      <stop
         style="stop-opacity:1;stop-color:#d50bd9"
         offset="0.609005"
         id="stop45461" />
      <stop
         style="stop-color:#b70dd4;stop-opacity:1;"
         offset="0.64185947"
         id="stop225567" />
      <stop
         style="stop-opacity:1;stop-color:#151ebf"
         offset="0.81999999"
         id="stop45463" />
      <stop
         style="stop-opacity:1;stop-color:#29a632"
         offset="1"
         id="stop45465" />
    </linearGradient>
    <clipPath
       clipPathUnits="userSpaceOnUse"
       id="clipPath168618">
      <path
         d="m 26138.1,18290.9 c -905.7,149.9 -1903.7,393.8 -2449.3,-245.8 -1000.8,-1173.2 26,-4949.2 2619.1,-4949.1 552.2,0 13.8,5164.5 -169.8,5194.9 z"
         id="path168616" />
    </clipPath>
    <clipPath
       clipPathUnits="userSpaceOnUse"
       id="clipPath168718">
      <path
         d="m 24503.2,24722.8 c -683.8,-108.5 -1150.2,-750.8 -1041.7,-1434.7 769.7,482.3 1595.2,613.2 2476.4,393 -108.5,683.8 -750.9,1150.2 -1434.7,1041.7 z"
         id="path168716" />
    </clipPath>
    <clipPath
       clipPathUnits="userSpaceOnUse"
       id="clipPath168818">
      <path
         d="m 26452.1,18371.3 h -762.7 v -5751.7 c -3763,384.4 -6665.7,3569.7 -6665.7,7389.9 0,3421 2324.5,6328.2 5512.2,7175.9 1317,350.3 2795.1,364.5 4021.9,-283.3 1437,-758.8 2418.5,-2268.7 2418.5,-4003.6 0,-2496.3 -2029.5,-4527.2 -4524.2,-4527.2 z m 2420.2,10068.3 c -510.6,225.3 -1076.7,370.9 -1659.5,445.3 -737,94.1 -1500.7,74.3 -2212.8,-42.3 -4249.1,-695.6 -7501.6,-4391.8 -7501.6,-8833.1 0,-4937.1 4016.5,-8953.9 8953.7,-8953.9 h 762.6 v 5838.3 c 2986.7,379.2 5286.9,2963.7 5286.9,6004.6 0,2446.6 -1490.3,4597.4 -3629.3,5541.1 z"
         id="path168816" />
    </clipPath>
    <linearGradient
       inkscape:collect="always"
       xlink:href="#linearGradient230315"
       id="linearGradient171369"
       gradientUnits="userSpaceOnUse"
       x1="25689.4"
       y1="12619.6"
       x2="32501.6"
       y2="20000.035" />
    <linearGradient
       inkscape:collect="always"
       xlink:href="#linearGradient222229"
       id="linearGradient171371"
       gradientUnits="userSpaceOnUse"
       x1="31639.279"
       y1="17722.855"
       x2="32501.6"
       y2="20000.035" />
    <linearGradient
       inkscape:collect="always"
       xlink:href="#linearGradient222229"
       id="linearGradient171373"
       gradientUnits="userSpaceOnUse"
       x1="31713.57"
       y1="19695.557"
       x2="24503.199"
       y2="24722.801" />
    <linearGradient
       inkscape:collect="always"
       xlink:href="#linearGradient222229"
       id="linearGradient171375"
       gradientUnits="userSpaceOnUse"
       x1="31713.57"
       y1="19695.557"
       x2="24503.199"
       y2="24722.801" />
    <linearGradient
       inkscape:collect="always"
       xlink:href="#linearGradient213689"
       id="linearGradient171377"
       gradientUnits="userSpaceOnUse"
       x1="17498.4"
       y1="20000.035"
       x2="32501.6"
       y2="20000.035" />
    <linearGradient
       inkscape:collect="always"
       xlink:href="#linearGradient222229"
       id="linearGradient171379"
       gradientUnits="userSpaceOnUse"
       x1="31713.57"
       y1="19695.557"
       x2="24503.199"
       y2="24722.801" />
    <linearGradient
       inkscape:collect="always"
       xlink:href="#linearGradient228753"
       id="linearGradient171381"
       gradientUnits="userSpaceOnUse"
       x1="25937.9"
       y1="23681.1"
       x2="23461.5"
       y2="23288.1" />
    <linearGradient
       inkscape:collect="always"
       xlink:href="#linearGradient222229"
       id="linearGradient171385"
       gradientUnits="userSpaceOnUse"
       x1="31713.57"
       y1="19695.557"
       x2="24503.199"
       y2="24722.801" />
    <linearGradient
       inkscape:collect="always"
       xlink:href="#linearGradient222229"
       id="linearGradient171387"
       gradientUnits="userSpaceOnUse"
       x1="31713.57"
       y1="19695.557"
       x2="24503.199"
       y2="24722.801" />
    <linearGradient
       inkscape:collect="always"
       xlink:href="#linearGradient222229"
       id="linearGradient171389"
       gradientUnits="userSpaceOnUse"
       x1="31713.57"
       y1="19695.557"
       x2="24503.199"
       y2="24722.801" />
    <linearGradient
       inkscape:collect="always"
       xlink:href="#linearGradient45467"
       id="linearGradient171391"
       gradientUnits="userSpaceOnUse"
       x1="27214.699"
       y1="11055.6"
       x2="28872.301"
       y2="28439.6" />
    <linearGradient
       inkscape:collect="always"
       xlink:href="#linearGradient222229"
       id="linearGradient171393"
       gradientUnits="userSpaceOnUse"
       x1="1532.8431"
       y1="6800.1064"
       x2="3116.4934"
       y2="5611.7603" />
    <linearGradient
       inkscape:collect="always"
       xlink:href="#linearGradient222229"
       id="linearGradient171395"
       gradientUnits="userSpaceOnUse"
       x1="31713.57"
       y1="19695.557"
       x2="24503.199"
       y2="24722.801" />
    <linearGradient
       inkscape:collect="always"
       xlink:href="#linearGradient222229"
       id="linearGradient171397"
       gradientUnits="userSpaceOnUse"
       x1="31713.57"
       y1="19695.557"
       x2="24503.199"
       y2="24722.801" />
    <linearGradient
       inkscape:collect="always"
       xlink:href="#linearGradient222229"
       id="linearGradient171399"
       gradientUnits="userSpaceOnUse"
       x1="31713.57"
       y1="19695.557"
       x2="24503.199"
       y2="24722.801" />
    <linearGradient
       inkscape:collect="always"
       xlink:href="#linearGradient213689"
       id="linearGradient171401"
       gradientUnits="userSpaceOnUse"
       x1="24480.361"
       y1="8522.1162"
       x2="32501.6"
       y2="20000.035" />
    <linearGradient
       inkscape:collect="always"
       xlink:href="#linearGradient222229"
       id="linearGradient171403"
       gradientUnits="userSpaceOnUse"
       x1="31713.57"
       y1="19695.557"
       x2="24503.199"
       y2="24722.801" />
  </defs>
  <g
     inkscape:label="Layer 1"
     inkscape:groupmode="layer"
     id="layer1"
     style="display:inline"
     transform="translate(-57.593273,-150.43982)">
    <rect
       style="fill:#000000;fill-opacity:0;fill-rule:evenodd;stroke-width:0.264583"
       id="rect946"
       width="35.179501"
       height="39.346321"
       x="57.593273"
       y="150.43982"
       ry="0.68117511"
       inkscape:export-filename="/home/niall/Documents/Ponder/logo/pot.png"
       inkscape:export-xdpi="960"
       inkscape:export-ydpi="960" />
  </g>
  <g
     inkscape:groupmode="layer"
     id="layer3"
     inkscape:label="bg"
     style="display:inline"
     transform="translate(-57.593273,-150.43982)" />
  <g
     inkscape:groupmode="layer"
     id="layer2"
     inkscape:label="p"
     transform="translate(-57.593273,-150.43982)"
     style="display:inline">
    <path
       style="color:#000000;fill:url(#linearGradient171393);stroke:none;-inkscape-stroke:none"
       d="m 26452.1,11055.1 c -4937.467,0 -8954.2,4017.034 -8954.2,8954.4 0,4441.54 3252.686,8137.955 7502.02,8833.594 712.147,116.607 1475.892,136.409 2212.943,42.302 582.841,-74.405 1148.987,-220.017 1659.639,-445.339 2139.176,-943.778 3629.598,-3094.756 3629.598,-5541.557 0,-3041.001 -2300.166,-5625.609 -5286.901,-6005.037 V 11055.1 Z m 0,1 h 762.099 v 5838.24 l 0.438,0.06 c 2986.447,379.168 5286.463,2963.459 5286.463,6004.104 0,2446.395 -1490.183,4597.022 -3629.002,5540.643 -510.548,225.276 -1076.603,370.867 -1659.362,445.261 -736.947,94.094 -1500.604,74.296 -2212.656,-42.297 -4248.857,-695.56 -7501.18,-4391.556 -7501.18,-8832.607 0,-4936.824 4016.276,-8953.4 8953.2,-8953.4 z m -762.2,1562.947 -0.55,0.06 c -3763.249,384.425 -6666.151,3569.947 -6666.151,7390.396 0,3421.223 2324.66,6328.626 5512.572,7176.383 1317.086,350.322 2795.314,364.538 4022.262,-283.34 1437.158,-758.883 2418.768,-2268.956 2418.768,-4004.043 0,-2496.569 -2029.733,-4527.699 -4524.701,-4527.699 h -762.2 z m -1,1.109 v 5751.645 h 763.2 c 2494.426,0 4523.701,2030.672 4523.701,4526.699 0,1734.71 -981.395,3244.443 -2418.235,4003.158 -1226.649,647.721 -2704.625,633.535 -4021.537,283.258 -3187.48,-847.642 -5511.83,-3754.646 -5511.83,-7175.416 0,-3819.756 2902.225,-7004.715 6664.701,-7389.344 z"
       id="path171359"
       transform="matrix(0.00173016,0,0,-0.00173016,34.613667,164.49776)" />
    <g
       id="use231462"
       style="display:inline;fill:url(#linearGradient171401);stroke:url(#linearGradient171403)"
       transform="matrix(0.00173016,0,0,-0.00173016,32.307136,205.11421)"
       inkscape:export-filename="/home/niall/Documents/Ponder/logo/concepts/whalephant_sweet.png"
       inkscape:export-xdpi="96"
       inkscape:export-ydpi="96">
      <g
         id="g171345"
         style="fill:url(#linearGradient171377);stroke:url(#linearGradient171379)">
        <g
           id="g171343"
           clip-path="url(#clipPath245718)"
           style="fill:url(#linearGradient213631);stroke:url(#linearGradient171375)">
          <g
             id="g171341"
             style="stroke:url(#linearGradient171373)">
            <path
               style="color:#000000;fill:url(#linearGradient171369);stroke:none;-inkscape-stroke:none"
               d="m 26138.1,18290.9 c -905.7,149.9 -1903.7,393.8 -2449.3,-245.8 -1000.8,-1173.2 26,-4949.2 2619.1,-4949.1 552.2,0 13.8,5164.5 -169.8,5194.9"
               id="path171337" />
            <path
               style="color:#000000;fill:url(#linearGradient171371);stroke:none;-inkscape-stroke:none"
               d="m 26307.9,13095.5 c -1296.791,-0.05 -2201.936,944.11 -2657.724,2034.869 -227.894,545.38 -343.466,1127.424 -339.508,1646.481 3.958,519.056 127.439,975.141 377.752,1268.574 272.918,319.938 659.004,418.901 1089.992,419.138 430.989,0.238 906.934,-98.222 1359.77,-173.169 6.014,-0.996 12.138,-7.1 18.554,-17.813 6.416,-10.713 13.111,-26.099 20.065,-45.865 13.907,-39.532 28.835,-96.582 44.445,-168.656 31.219,-144.149 65.157,-348.387 98.99,-592.618 67.668,-488.461 134.925,-1136.883 179.188,-1784.357 44.263,-647.474 65.534,-1293.998 41.222,-1778.682 -12.155,-242.341 -35.702,-444.219 -73.486,-585.56 -18.892,-70.671 -41.34,-126.209 -67.74,-164.121 -26.4,-37.913 -56.812,-58.221 -91.52,-58.221 z m 0,1 c 34.318,0 64.41,20.039 90.7,57.793 26.29,37.754 48.719,93.203 67.593,163.809 37.75,141.211 61.302,343.046 73.455,585.351 24.308,484.61 3.039,1131.112 -41.222,1778.563 -44.262,647.45 -111.516,1295.855 -179.18,1784.287 -33.832,244.215 -67.767,448.441 -98.976,592.545 -15.605,72.052 -30.531,129.075 -44.413,168.535 -6.94,19.73 -13.621,35.07 -19.978,45.683 -6.357,10.614 -12.4,16.436 -17.861,17.34 -452.864,74.952 -928.77,173.394 -1359.606,173.156 -430.836,-0.237 -816.551,-99.125 -1089.232,-418.787 -250.087,-293.166 -373.555,-749.031 -377.512,-1267.933 -3.957,-518.902 111.589,-1100.829 339.432,-1646.086 455.685,-1090.514 1360.494,-2034.306 2656.8,-2034.256 z"
               id="path171339" />
          </g>
        </g>
      </g>
      <g
         id="g171355"
         style="fill:url(#linearGradient213639);stroke:url(#linearGradient171389)">
        <g
           id="g171353"
           clip-path="url(#clipPath245734)"
           style="fill:url(#linearGradient213637);stroke:url(#linearGradient171387)">
          <g
             id="g171351"
             style="stroke:url(#linearGradient171385)">
            <path
               style="color:#000000;fill:url(#linearGradient171381);stroke:none;-inkscape-stroke:none"
               d="m 24503.2,24722.8 c -683.8,-108.5 -1150.2,-750.8 -1041.7,-1434.7 769.7,482.3 1595.2,613.2 2476.4,393 -108.5,683.8 -750.9,1150.2 -1434.7,1041.7"
               id="path171347" />
            <path
               style="color:#000000;fill:#ffffff;stroke:none;-inkscape-stroke:none"
               d="m 23461.125,23287.275 -0.119,0.746 c -108.542,684.167 358.049,1326.73 1042.115,1435.272 684.066,108.542 1326.731,-358.049 1435.274,-1042.115 l 0.117,-0.746 -0.733,0.183 c -881.082,220.171 -1706.416,89.297 -2476.013,-392.939 z m 0.762,1.647 c 769.399,481.894 1594.604,612.747 2475.392,392.84 -108.805,683.126 -750.715,1148.963 -1434,1040.545 -683.284,-108.419 -1149.393,-750.031 -1041.392,-1433.385 z"
               id="path171349" />
          </g>
        </g>
      </g>
      <g
         id="g171365"
         style="fill:url(#linearGradient213645);stroke:url(#linearGradient171399)">
        <g
           id="g171363"
           clip-path="url(#clipPath245750)"
           style="fill:url(#linearGradient213643);stroke:url(#linearGradient171397)">
          <g
             id="g171361"
             style="stroke:url(#linearGradient171395)">
            <path
               style="color:#000000;fill:url(#linearGradient171391);stroke:none;-inkscape-stroke:none"
               d="m 26452.1,18371.3 h -762.7 v -5751.7 c -3763,384.4 -6665.7,3569.7 -6665.7,7389.9 0,3421 2324.5,6328.2 5512.2,7175.9 1317,350.3 2795.1,364.5 4021.9,-283.3 1437,-758.8 2418.5,-2268.7 2418.5,-4003.6 0,-2496.3 -2029.5,-4527.2 -4524.2,-4527.2 z m 2420.2,10068.3 c -510.6,225.3 -1076.7,370.9 -1659.5,445.3 -737,94.1 -1500.7,74.3 -2212.8,-42.3 -4249.1,-695.6 -7501.6,-4391.8 -7501.6,-8833.1 0,-4937.1 4016.5,-8953.9 8953.7,-8953.9 h 762.6 v 5838.3 c 2986.7,379.2 5286.9,2963.7 5286.9,6004.6 0,2446.6 -1490.3,4597.4 -3629.3,5541.1"
               id="path171357" />
          </g>
        </g>
      </g>
    </g>
    <path
       style="fill:#ffffff;stroke:none;stroke-width:6.76748;stop-color:#000000"
       d="M 74.22694,128.76579 C 66.891492,127.47029 60.064526,124.60784 54.2052,120.37096 40.433051,110.4123 32.785599,94.026363 34.104881,77.302673 c 0.915912,-11.610439 5.803437,-22.261937 13.99613,-30.502096 5.68409,-5.717023 12.547733,-9.858766 20.265455,-12.22883 2.433687,-0.747369 6.071573,-1.507038 8.546317,-1.784654 2.477342,-0.277907 7.365265,-0.232342 9.522536,0.08877 4.704252,0.70023 8.765462,2.215802 12.314335,4.595492 7.048306,4.726224 11.681036,12.020961 12.915926,20.337521 0.32316,2.176421 0.32638,6.456668 0.006,8.55912 -1.1675,7.671786 -5.19185,14.485686 -11.32256,19.170973 -4.045816,3.091948 -8.745903,5.046125 -13.914133,5.785144 -2.313281,0.330781 -8.726669,0.317826 -11.156856,-0.02254 -2.578838,-0.361184 -6.193952,-0.245321 -7.54965,0.241964 -1.40689,0.505685 -2.229474,1.036955 -3.124824,2.01818 -1.017199,1.114762 -1.55884,2.123138 -2.119623,3.946104 -0.429623,1.396595 -0.44971,1.613092 -0.452754,4.879779 -0.003,3.18802 0.0278,3.54996 0.456745,5.37169 1.246418,5.29356 3.491752,9.61354 6.741974,12.97145 2.17122,2.24314 4.401624,3.71285 7.023897,4.62834 l 1.065502,0.37199 0.0462,1.71679 0.0462,1.71678 -0.534537,-0.0126 c -0.293994,-0.007 -1.486788,-0.18074 -2.650654,-0.38629 z M 64.623016,58.659961 c 3.102688,-1.590544 5.808374,-2.257253 9.160531,-2.257253 1.86264,0 4.364065,0.285297 5.151812,0.587584 0.228524,0.08769 0.256457,0.02863 0.171911,-0.363523 -0.538583,-2.498148 -2.312695,-4.77219 -4.548084,-5.829699 -1.171249,-0.554088 -2.051028,-0.734056 -3.611361,-0.738739 -3.794442,-0.01139 -6.963965,2.493643 -7.95131,6.284321 -0.362407,1.39137 -0.319362,3.308079 0.06993,3.113974 0.05036,-0.02511 0.750815,-0.383609 1.556568,-0.796665 z"
       id="path2587"
       transform="matrix(0.26458333,0,0,0.26458333,56.252487,149.07332)" />
    <rect
       style="fill:#000000;fill-opacity:0;fill-rule:evenodd;stroke-width:0.264583"
       id="rect10503"
       width="39.701206"
       height="43.347324"
       x="55.512722"
       y="148.31342"
       ry="0.68117511" />
  </g>
</svg>
